<?xml version="1.0" standalone="no"?>
<!DOCTYPE svg PUBLIC "-//W3C//DTD SVG 20010904//EN"
 "http://www.w3.org/TR/2001/REC-SVG-20010904/DTD/svg10.dtd">
<svg version="1.0" xmlns="http://www.w3.org/2000/svg"
 width="840.000000pt" height="859.000000pt" viewBox="0 0 840.000000 859.000000"
 preserveAspectRatio="xMidYMid meet">

<g transform="translate(0.000000,859.000000) scale(0.100000,-0.100000)"
fill="#000000" stroke="none">
<path d="M4216 7930 c-15 -5 -16 -9 -7 -14 7 -5 18 -3 24 3 14 14 6 20 -17 11z"/>
<path d="M4773 7903 c31 -3 47 -9 47 -17 0 -8 6 -16 13 -19 10 -4 13 2 9 19
-4 22 -8 24 -61 22 l-56 -2 48 -3z"/>
<path d="M4500 7885 c-35 -7 -66 -18 -68 -24 -2 -7 -32 -11 -77 -11 -68 0 -73
-1 -68 -20 3 -12 0 -20 -6 -20 -7 0 -10 -4 -7 -9 3 -5 -8 -14 -24 -20 -17 -5
-30 -15 -30 -20 0 -6 -9 -11 -21 -11 -12 0 -23 -8 -26 -20 -3 -13 -14 -20 -29
-20 -17 0 -22 -4 -17 -15 3 -9 2 -15 -3 -14 -16 4 -44 -13 -38 -22 3 -5 -9 -9
-27 -9 -26 0 -30 -3 -21 -12 21 -21 13 -28 -29 -28 -24 0 -38 -4 -34 -10 3 -5
-6 -16 -22 -22 l-27 -13 34 -6 35 -6 -37 -2 c-20 0 -40 -5 -43 -11 -3 -5 -1
-10 5 -10 6 0 8 -4 5 -10 -3 -5 -16 -10 -28 -10 -18 0 -19 -2 -7 -10 13 -8 13
-9 0 -14 -77 -24 -77 -24 -50 -26 21 -2 18 -4 -15 -15 -22 -8 -32 -14 -22 -14
27 -1 20 -21 -8 -21 -25 0 -36 -19 -12 -21 6 0 -4 -7 -23 -14 -20 -8 -27 -14
-17 -14 10 -1 15 -6 12 -11 -4 -6 -12 -10 -18 -9 -7 1 -28 0 -47 -1 -25 -2
-29 -4 -12 -7 31 -6 17 -23 -20 -23 -26 0 -29 -2 -18 -15 10 -13 9 -15 -8 -15
-12 0 -26 -9 -32 -20 -6 -11 -17 -20 -25 -20 -9 0 -15 -9 -15 -22 0 -45 -11
-64 -43 -74 -25 -7 -35 -18 -47 -51 -9 -24 -32 -60 -52 -80 -53 -56 -63 -119
-62 -395 1 -189 3 -231 16 -245 8 -10 18 -31 22 -48 15 -66 70 -202 93 -229
21 -26 23 -36 21 -110 l-3 -81 -120 -8 c-81 -5 -124 -12 -135 -22 -9 -8 -20
-15 -23 -15 -4 0 -16 -9 -27 -20 -24 -24 -75 -27 -84 -5 -7 20 -55 19 -63 -1
-3 -9 0 -20 8 -25 10 -6 6 -9 -13 -9 -16 0 -28 -4 -28 -10 0 -5 9 -10 20 -10
11 0 20 -4 20 -10 0 -6 -61 -11 -157 -12 l-158 -2 153 -3 c90 -2 152 -7 152
-13 0 -11 -16 -12 -172 -14 -160 -3 -143 -16 23 -18 l144 -2 -150 -6 c-82 -4
-151 -8 -152 -8 -2 -1 -3 -9 -3 -18 0 -14 -2 -14 -16 1 -14 13 -19 14 -25 3
-5 -8 -9 -8 -9 -2 0 7 -10 9 -25 6 -14 -2 -22 -8 -19 -13 3 -5 -13 -9 -36 -9
-23 0 -39 -4 -35 -9 3 -5 -4 -16 -16 -25 -21 -14 -21 -14 7 -19 l29 -4 -27 -2
c-38 -2 -35 -17 5 -27 l32 -8 -35 -5 -35 -5 45 -5 c36 -5 44 -10 42 -23 -2
-14 5 -18 30 -19 31 -1 32 -1 8 -9 -14 -5 -18 -8 -9 -9 9 -1 22 -8 30 -17 11
-14 9 -15 -22 -12 -22 2 -34 8 -34 18 0 8 -13 18 -30 21 -16 4 -23 7 -15 8 28
4 -30 21 -86 25 -55 5 -108 -9 -98 -25 3 -5 -8 -9 -25 -9 -40 0 -106 -64 -120
-116 -6 -21 -9 -39 -7 -41 7 -7 36 10 30 18 -9 15 22 21 57 11 l34 -10 -33 -1
c-41 -1 -33 -21 8 -21 22 0 28 -4 24 -15 -5 -12 2 -15 31 -15 21 0 34 -4 30
-10 -3 -5 -47 -10 -96 -10 -86 0 -90 1 -84 20 8 26 3 25 -34 -7 -29 -26 -31
-32 -31 -95 0 -61 2 -67 23 -71 l22 -4 -22 -2 c-26 -1 -30 -17 -37 -178 l-6
-113 68 -1 67 -1 -43 -10 c-51 -11 -48 -19 11 -29 l42 -6 -49 -2 c-38 -1 -47
-4 -42 -16 3 -9 0 -15 -10 -15 -8 0 -12 4 -9 10 3 5 -7 12 -22 16 -42 9 -50
12 -30 13 9 1 17 8 17 17 0 11 -5 14 -16 10 -9 -3 -18 -6 -20 -6 -2 0 -4 -6
-4 -14 0 -9 -18 -15 -55 -19 -119 -12 -178 -80 -258 -297 -39 -105 -86 -262
-93 -310 -4 -25 -24 -98 -46 -163 -73 -221 -109 -421 -93 -515 4 -23 19 -54
36 -73 29 -33 35 -50 22 -63 -5 -4 -8 -92 -8 -196 0 -177 -1 -190 -21 -212
-29 -32 -40 -65 -65 -193 -17 -90 -22 -161 -26 -389 -5 -263 -5 -280 13 -293
11 -8 13 -13 5 -13 -9 0 -5 -11 10 -32 23 -31 24 -39 21 -165 l-3 -133 -27 0
c-39 0 -87 -33 -118 -80 -15 -22 -30 -40 -35 -40 -15 0 -80 -115 -75 -134 3
-12 -2 -20 -14 -23 -29 -8 -230 -311 -230 -347 0 -18 -8 -20 -29 -7 -12 8 -13
15 -4 34 7 14 17 54 23 89 6 35 22 98 36 141 26 85 29 101 15 92 -5 -3 -12 -1
-15 4 -3 5 2 11 12 13 19 5 42 66 42 109 0 36 -36 87 -74 106 -30 14 -42 14
-95 3 -34 -7 -61 -17 -61 -21 0 -5 35 -9 78 -9 81 0 95 -4 105 -32 9 -26 -18
-105 -51 -152 -37 -51 -48 -97 -30 -125 11 -17 10 -26 -4 -53 -9 -18 -20 -61
-23 -95 -5 -46 -13 -67 -31 -84 -27 -26 -41 -79 -26 -105 8 -13 5 -32 -9 -69
-23 -60 -22 -55 -4 -55 20 0 52 36 79 89 17 32 35 49 67 65 40 19 44 24 41 54
-2 26 12 53 70 138 40 58 78 113 83 122 6 10 20 32 33 49 12 17 22 35 22 41 0
5 7 15 15 22 8 7 29 38 45 69 17 31 46 73 66 93 l35 38 128 0 c124 0 128 -1
138 -23 20 -43 35 -139 29 -181 -7 -48 7 -139 23 -144 6 -2 20 -35 31 -73 27
-91 42 -88 84 16 17 44 49 103 69 131 20 28 37 55 37 60 0 21 76 102 123 132
106 67 152 75 431 73 137 0 250 -2 252 -3 2 -3 -25 -89 -54 -168 -22 -59 -34
-67 -104 -69 -26 -1 -40 -7 -48 -21 -15 -27 -92 -28 -119 -1 -33 33 -152 13
-189 -32 -27 -32 -61 -108 -72 -162 -6 -31 -21 -66 -32 -77 -11 -11 -22 -37
-25 -57 -4 -30 0 -41 22 -64 l28 -27 200 0 c169 0 203 -2 218 -16 16 -14 18
-14 27 3 5 10 12 44 15 75 3 31 12 72 20 90 9 18 28 83 42 143 15 61 43 162
62 225 20 63 37 124 40 136 4 19 14 22 86 28 113 8 189 7 206 -3 11 -7 13 -23
8 -68 -7 -62 -26 -128 -35 -119 -8 9 -32 -43 -38 -86 -5 -31 -4 -37 8 -33 17
7 34 37 42 77 4 16 12 28 19 28 13 0 41 24 157 136 l76 72 172 0 c157 1 173
-1 182 -18 5 -10 7 -26 4 -34 -12 -30 62 -9 108 31 13 12 67 15 270 19 139 2
266 1 282 -2 26 -6 28 -9 23 -43 -7 -50 -44 -144 -68 -175 -11 -14 -31 -26
-43 -26 -13 0 -31 -9 -41 -20 -12 -13 -31 -20 -55 -20 -29 0 -39 -5 -43 -19
-6 -26 10 -31 93 -31 38 0 72 -4 75 -10 3 -5 15 -10 26 -10 25 0 44 42 64 143
19 94 46 189 58 205 8 10 54 13 201 11 337 -5 415 -11 477 -42 71 -35 92 -69
90 -153 -1 -34 3 -65 9 -69 35 -22 -38 -206 -103 -261 -61 -51 -87 -117 -52
-130 10 -4 13 -13 10 -25 -4 -11 -1 -45 6 -77 7 -31 11 -82 10 -113 -2 -51 0
-56 24 -67 14 -7 27 -12 29 -12 3 0 5 46 6 125 0 44 8 101 26 183 2 12 11 22
19 22 21 0 28 19 15 35 -16 19 -7 79 24 165 14 36 27 83 31 105 8 53 54 260
62 281 11 28 56 35 207 33 129 -2 152 -5 168 -21 10 -10 18 -25 18 -33 0 -8 5
-15 10 -15 7 0 8 23 5 63 -8 79 13 115 87 153 29 15 81 52 114 83 60 55 101
75 202 101 37 10 42 14 42 40 0 30 0 30 60 30 l60 0 0 216 c0 213 0 216 26
259 l25 44 -5 203 c-9 311 -15 392 -32 401 -9 5 -14 25 -14 55 0 39 -4 49 -22
57 -18 8 -24 20 -26 52 -3 34 -7 42 -28 47 -23 6 -24 9 -24 96 0 79 2 89 19
95 17 5 18 10 9 38 -6 18 -23 82 -39 142 -16 61 -35 115 -43 120 -11 8 -14 43
-12 158 1 112 -2 147 -11 147 -8 0 -13 12 -13 28 0 16 -12 42 -30 62 -27 33
-29 40 -30 122 0 79 -3 94 -37 167 -30 64 -42 81 -59 81 -12 0 -27 6 -33 14
-6 7 -29 16 -51 20 -57 9 -84 24 -104 57 -16 28 -21 29 -86 29 -67 0 -69 0
-72 28 -3 24 -7 27 -38 26 -19 0 -46 -3 -60 -7 -14 -4 -19 -4 -12 -1 16 8 5
24 -16 24 -9 0 -30 7 -45 15 -16 8 -42 16 -57 17 -16 1 -27 5 -24 9 2 4 -12
13 -31 19 -19 6 -35 16 -35 21 0 5 -4 9 -9 9 -5 0 -32 14 -60 31 -36 22 -54
41 -61 65 -7 19 -20 39 -31 44 -16 9 -19 22 -19 80 0 60 3 71 23 85 20 14 23
26 28 128 4 76 2 114 -5 119 -8 5 -7 8 2 8 6 0 12 11 12 24 0 37 48 185 76
233 13 23 36 56 51 73 31 37 119 104 149 114 12 3 26 18 32 32 16 34 16 390 1
400 -8 5 -9 35 -5 99 5 62 4 95 -3 100 -6 3 -11 21 -11 39 0 24 -7 38 -22 49
-62 41 -68 53 -68 135 0 58 -11 120 -44 252 -48 189 -49 193 -93 290 -16 36
-46 103 -67 150 -36 80 -45 92 -147 183 -84 77 -110 106 -114 131 l-7 33 -150
1 c-83 0 -153 3 -156 6 -3 3 19 6 49 6 68 1 47 15 -35 25 -33 4 -64 8 -70 10
-6 1 -40 -3 -76 -10z m130 -59 c0 -11 -19 -15 -25 -6 -3 5 1 10 9 10 9 0 16
-2 16 -4z m375 -358 c20 -18 43 -45 51 -60 7 -14 20 -33 28 -41 17 -16 70
-119 81 -154 3 -13 11 -23 16 -23 6 0 8 -4 5 -9 -3 -5 1 -28 9 -51 8 -24 17
-61 20 -83 5 -37 4 -39 -17 -33 -13 3 -29 6 -36 6 -7 0 -11 3 -9 8 8 12 -75 7
-118 -8 -22 -7 -87 -16 -145 -20 -94 -6 -98 -7 -40 -10 l65 -3 -55 -7 c-30 -5
-80 -9 -110 -9 -39 -1 -51 -4 -40 -11 8 -5 39 -9 68 -9 29 1 56 -2 60 -5 3 -4
-53 -6 -125 -5 -102 1 -130 4 -127 14 4 10 -10 12 -58 8 -35 -2 -67 -8 -72
-13 -6 -6 -33 -10 -62 -10 -48 0 -127 -29 -145 -53 -9 -12 -69 -16 -99 -6 -22
6 -19 7 15 9 34 1 37 3 23 13 -15 10 -14 13 10 23 l27 12 -25 2 -25 1 24 10
c30 12 25 17 -30 28 -41 8 -39 9 36 11 57 1 73 4 55 10 -14 4 -40 8 -59 9 -46
1 -34 10 26 21 l48 8 -50 1 c-46 2 -48 3 -31 16 21 16 15 20 -34 28 -17 3 -12
5 15 6 l40 3 -34 12 c-28 10 -31 14 -17 19 10 4 27 8 39 8 16 1 14 3 -8 8
l-30 7 30 17 c25 13 27 16 10 17 -17 1 -16 3 6 13 14 7 24 18 22 25 -3 7 6 12
24 13 23 0 25 2 9 8 -18 7 -18 8 -2 14 10 4 26 7 37 7 21 0 27 20 7 20 -8 0
-6 5 4 11 10 5 15 16 12 24 -4 10 0 15 15 15 14 0 19 5 15 15 -5 11 1 15 19
15 26 0 49 19 25 21 -7 0 -4 4 7 9 11 5 56 9 100 10 50 1 72 4 60 9 -16 6 -12
9 20 15 22 4 43 12 46 18 3 5 25 12 48 15 24 3 41 11 41 19 0 18 21 22 142 23
l106 1 37 -32z m213 -525 c0 -5 2 -16 6 -25 14 -32 -1 -48 -43 -48 -22 0 -43
5 -46 10 -3 6 -1 10 4 10 6 0 11 5 11 12 0 19 31 48 52 48 10 0 17 -3 16 -7z
m-392 -61 c-3 -5 6 -15 19 -22 13 -7 22 -17 19 -21 -4 -8 6 -28 57 -120 29
-50 96 -99 136 -99 34 0 126 43 115 54 -3 4 0 11 8 16 13 8 13 10 -1 10 -21 0
-72 47 -59 55 11 7 9 33 -3 53 -12 17 17 26 42 12 12 -6 21 -15 21 -20 0 -6 6
-10 13 -10 24 0 55 -44 88 -125 l33 -80 -3 -175 c-2 -96 -4 -199 -4 -227 -1
-29 -5 -53 -9 -53 -4 0 -6 -13 -4 -30 2 -16 -1 -31 -7 -33 -5 -1 -11 -14 -13
-27 -1 -14 -8 -38 -15 -55 -7 -16 -14 -41 -16 -55 -2 -14 -11 -29 -19 -33 -8
-4 -14 -15 -14 -22 0 -8 -4 -15 -8 -15 -4 0 -8 -9 -9 -20 -1 -11 -11 -34 -23
-50 l-21 -30 -270 0 c-173 0 -269 4 -269 10 0 6 7 10 15 10 30 0 14 20 -17 21
-30 1 -29 2 11 10 46 9 66 19 38 19 -28 0 -19 18 11 23 15 2 3 5 -25 6 -29 0
-53 6 -53 11 0 6 43 10 108 11 109 1 203 16 113 18 -24 1 -42 3 -40 5 6 6 115
15 181 16 47 0 56 3 52 15 -5 11 1 15 21 15 19 0 26 4 22 14 -3 8 1 17 9 20 9
3 13 10 9 15 -3 5 0 13 6 17 8 4 7 9 -2 15 -12 8 -12 11 1 18 12 8 9 15 -17
40 -19 18 -27 32 -20 35 7 2 1 5 -13 6 l-25 1 25 12 c14 6 28 16 32 22 5 7 14
6 27 -2 16 -10 20 -9 25 2 3 8 17 15 31 15 31 0 32 10 4 34 -19 16 -39 18
-152 17 -72 -1 -133 -5 -136 -10 -3 -4 -31 -14 -61 -21 -30 -7 -60 -16 -66
-21 -6 -5 -40 -10 -77 -11 -53 -2 -67 -6 -71 -20 -2 -10 -12 -18 -23 -18 -14
0 -15 -2 -4 -9 12 -8 12 -12 2 -24 -9 -12 -9 -16 1 -20 7 -3 -9 -5 -37 -5 -27
1 -38 3 -22 5 30 5 27 23 -4 23 -10 0 -19 5 -19 10 0 6 12 10 28 10 18 0 23 3
14 8 -7 5 -10 16 -6 25 5 14 -1 17 -37 19 l-44 1 43 4 c52 5 56 23 5 24 -44 1
-96 8 -102 15 -2 2 29 4 69 4 100 0 85 8 -20 11 -47 1 -94 5 -105 10 -11 4
-14 8 -7 8 6 1 12 6 12 11 0 6 -26 11 -57 12 -43 1 -48 2 -20 5 46 5 48 21 5
30 l-33 7 30 7 c30 7 30 7 -7 8 -20 0 -44 4 -54 8 -14 5 -11 9 17 19 34 12 33
12 -31 14 -62 2 -64 2 -30 13 24 7 29 12 18 14 -10 3 -18 9 -18 14 0 5 8 9 18
10 12 0 10 3 -8 11 -15 6 -20 12 -12 15 20 8 14 23 -10 23 l-23 1 23 12 c17
10 20 15 10 25 -9 9 -1 12 38 13 l49 1 -52 10 c-58 10 -69 24 -25 31 21 3 18
4 -13 6 -60 4 -15 20 55 20 59 0 121 -17 68 -18 -32 -1 -39 -21 -8 -21 11 0
20 -4 20 -10 0 -5 -6 -7 -14 -4 -8 3 -17 1 -21 -5 -5 -10 69 -17 112 -12 8 1
10 -5 7 -14 -3 -8 -1 -15 5 -15 6 0 11 6 12 13 0 10 2 10 6 0 7 -18 64 -16 87
2 11 8 30 15 42 15 12 0 24 7 28 15 3 8 12 15 19 15 13 0 48 24 71 49 46 49
56 62 56 76 0 8 4 15 9 15 8 0 24 37 22 53 -1 4 5 7 13 7 11 0 13 9 9 35 -4
26 -2 36 11 41 9 3 13 10 10 15 -3 5 2 12 11 15 9 4 14 13 11 20 -4 10 3 14
25 14 17 0 28 -4 25 -8z m-308 -164 c-7 -19 -38 -22 -38 -4 0 10 9 16 21 16
12 0 19 -5 17 -12z m-173 -108 c-28 -12 -65 -12 -65 0 0 6 19 10 43 9 32 0 37
-2 22 -9z m-202 -437 c-7 -2 -21 -2 -30 0 -10 3 -4 5 12 5 17 0 24 -2 18 -5z
m80 0 c-7 -2 -19 -2 -25 0 -7 3 -2 5 12 5 14 0 19 -2 13 -5z m-68 -63 c18 -8
17 -9 -7 -9 -15 -1 -30 4 -33 9 -7 12 12 12 40 0z m68 -37 c-18 -2 -48 -2 -65
0 -18 2 -4 4 32 4 36 0 50 -2 33 -4z m500 0 c-13 -2 -33 -2 -45 0 -13 2 -3 4
22 4 25 0 35 -2 23 -4z m54 1 c-3 -3 -12 -4 -19 -1 -8 3 -5 6 6 6 11 1 17 -2
13 -5z m-557 -35 c0 -5 -11 -8 -25 -7 -24 2 -31 9 -19 20 8 8 44 -3 44 -13z
m445 1 c3 -5 -3 -10 -14 -10 -12 0 -21 5 -21 10 0 6 6 10 14 10 8 0 18 -4 21
-10z m-485 -30 c0 -5 -8 -10 -17 -10 -15 0 -16 2 -3 10 19 12 20 12 20 0z
m475 0 c4 -6 -5 -10 -20 -10 -15 0 -24 4 -20 10 3 6 12 10 20 10 8 0 17 -4 20
-10z m-438 -6 c-3 -3 -12 -4 -19 -1 -8 3 -5 6 6 6 11 1 17 -2 13 -5z m46 -1
c-7 -2 -19 -2 -25 0 -7 3 -2 5 12 5 14 0 19 -2 13 -5z m485 0 c-10 -2 -26 -2
-35 0 -10 3 -2 5 17 5 19 0 27 -2 18 -5z m-468 -27 c0 -8 -60 -12 -72 -4 -8 4
4 8 30 8 23 0 42 -2 42 -4z m363 -3 c-7 -2 -21 -2 -30 0 -10 3 -4 5 12 5 17 0
24 -2 18 -5z m-330 -30 c-7 -2 -19 -2 -25 0 -7 3 -2 5 12 5 14 0 19 -2 13 -5z
m297 3 c0 -3 -4 -8 -10 -11 -5 -3 -10 -1 -10 4 0 6 5 11 10 11 6 0 10 -2 10
-4z m47 -2 c-3 -3 -12 -4 -19 -1 -8 3 -5 6 6 6 11 1 17 -2 13 -5z m-397 -34
c13 -8 13 -10 -2 -10 -9 0 -20 5 -23 10 -8 13 5 13 25 0z m399 -6 c2 -2 -29
-3 -70 -3 -56 1 -66 3 -39 8 32 7 99 3 109 -5z m98 0 c-3 -3 -12 -4 -19 -1 -8
3 -5 6 6 6 11 1 17 -2 13 -5z m68 -165 c-55 -11 -147 -11 -165 1 -10 7 21 9
95 9 85 -1 101 -3 70 -10z m308 4 c-7 -2 -21 -2 -30 0 -10 3 -4 5 12 5 17 0
24 -2 18 -5z m-1588 -103 c3 -5 -3 -10 -14 -10 -11 0 -23 5 -26 10 -3 6 3 10
14 10 11 0 23 -4 26 -10z m-657 -37 c-10 -2 -28 -2 -40 0 -13 2 -5 4 17 4 22
1 32 -1 23 -4z m-188 -163 c13 -8 13 -10 -2 -10 -9 0 -20 5 -23 10 -8 13 5 13
25 0z m-375 -40 c-3 -5 -10 -10 -16 -10 -5 0 -9 5 -9 10 0 6 7 10 16 10 8 0
12 -4 9 -10z m-55 -130 c0 -5 -9 -10 -20 -10 -11 0 -20 5 -20 10 0 6 9 10 20
10 11 0 20 -4 20 -10z m199 4 c29 -6 30 -8 14 -20 -16 -12 -14 -13 20 -14 25
0 37 -5 37 -14 0 -8 12 -17 28 -21 24 -7 25 -8 8 -14 -19 -7 -18 -8 3 -14 16
-4 22 -11 18 -21 -4 -11 3 -16 26 -19 18 -2 -2 -4 -43 -4 -51 -1 -67 2 -50 7
17 5 19 8 8 9 -10 1 -27 10 -38 21 -13 13 -33 20 -56 20 -27 0 -35 4 -31 14 6
15 -11 25 -46 27 -17 1 -15 3 8 9 l30 7 -32 8 c-74 17 16 35 96 19z m201 -174
c11 -7 0 -10 -38 -10 -33 0 -51 4 -47 10 8 13 65 13 85 0z m25 -31 c4 -6 5
-12 4 -14 -7 -7 -59 8 -59 16 0 13 47 11 55 -2z m1789 -34 c18 -35 20 -55 13
-127 -3 -33 -17 -18 -17 17 0 19 -5 35 -11 35 -6 0 -9 6 -6 13 2 6 -4 31 -14
54 -28 67 3 74 35 8z m-2226 -2 c-10 -2 -28 -2 -40 0 -13 2 -5 4 17 4 22 1 32
-1 23 -4z m490 0 c-10 -2 -28 -2 -40 0 -13 2 -5 4 17 4 22 1 32 -1 23 -4z
m1926 -16 c8 -13 8 -20 0 -25 -6 -4 -13 -14 -16 -22 -7 -19 -68 -55 -68 -41 0
6 4 11 8 11 5 0 14 16 22 35 8 19 18 35 23 35 5 0 6 7 3 16 -8 21 14 13 28 -9z
m-2395 -23 c2 -2 -15 -4 -38 -4 -25 0 -40 4 -36 10 5 8 63 3 74 -6z m524 -1
c-13 -2 -33 -2 -45 0 -13 2 -3 4 22 4 25 0 35 -2 23 -4z m-566 -29 c-3 -3 -12
-4 -19 -1 -8 3 -5 6 6 6 11 1 17 -2 13 -5z m621 -1 c-10 -2 -26 -2 -35 0 -10
3 -2 5 17 5 19 0 27 -2 18 -5z m-603 -33 c-28 -12 -63 -12 -70 0 -4 6 12 10
42 9 36 0 43 -3 28 -9z m678 3 c-7 -2 -21 -2 -30 0 -10 3 -4 5 12 5 17 0 24
-2 18 -5z m-675 -40 c-10 -2 -28 -2 -40 0 -13 2 -5 4 17 4 22 1 32 -1 23 -4z
m759 1 c-3 -3 -12 -4 -19 -1 -8 3 -5 6 6 6 11 1 17 -2 13 -5z m1565 -2 c-6 -2
-8 -10 -5 -18 3 -7 -2 -16 -10 -20 -14 -5 -15 -29 -2 -106 3 -20 0 -28 -10
-28 -8 0 -15 7 -15 16 0 9 -6 14 -12 12 -7 -3 -13 -13 -13 -24 0 -14 6 -18 23
-17 15 2 22 -3 23 -15 8 -108 8 -112 -8 -112 -10 0 -13 6 -9 16 4 10 -2 24
-16 36 -22 19 -22 18 -34 -9 -15 -35 -16 -33 -18 105 -1 105 5 138 17 92 13
-50 37 9 29 72 -1 3 15 6 35 5 20 -1 31 -3 25 -5z m-2324 -29 c2 -9 -7 -13
-27 -13 -31 0 -42 14 -18 23 19 8 40 3 45 -10z m879 -29 c-3 -3 -12 -4 -19 -1
-8 3 -5 6 6 6 11 1 17 -2 13 -5z m2356 -1 c-7 -2 -21 -2 -30 0 -10 3 -4 5 12
5 17 0 24 -2 18 -5z m-2275 -40 c-10 -2 -28 -2 -40 0 -13 2 -5 4 17 4 22 1 32
-1 23 -4z m2395 0 c-7 -2 -19 -2 -25 0 -7 3 -2 5 12 5 14 0 19 -2 13 -5z
m-2286 -59 c-3 -3 -12 -4 -19 -1 -8 3 -5 6 6 6 11 1 17 -2 13 -5z m2481 1 c-7
-8 -87 -9 -95 -2 -3 4 18 7 47 7 29 0 51 -2 48 -5z m-3560 -42 c-10 -2 -28 -2
-40 0 -13 2 -5 4 17 4 22 1 32 -1 23 -4z m1185 0 c-7 -2 -19 -2 -25 0 -7 3 -2
5 12 5 14 0 19 -2 13 -5z m54 1 c-3 -3 -12 -4 -19 -1 -8 3 -5 6 6 6 11 1 17
-2 13 -5z m2376 -1 c-7 -2 -19 -2 -25 0 -7 3 -2 5 12 5 14 0 19 -2 13 -5z
m-3630 -30 c-7 -2 -19 -2 -25 0 -7 3 -2 5 12 5 14 0 19 -2 13 -5z m37 -33 c20
-6 14 -8 -28 -9 -33 -1 -51 3 -47 9 7 12 39 12 75 0z m10 -41 c-25 -4 -58 -4
-75 -1 l-30 6 29 6 c16 3 50 3 75 1 l46 -5 -45 -7z m-17 -30 c-7 -7 -21 -7
-44 -1 l-34 10 45 1 c31 1 41 -2 33 -10z m1122 2 c-6 -6 -30 -11 -55 -14 l-45
-4 50 -1 c79 -3 34 -22 -55 -23 -73 0 -74 -1 -40 -13 l35 -13 -62 -7 c-39 -5
-68 -4 -80 3 -16 9 -14 10 12 11 17 0 37 5 45 10 11 7 1 10 -35 11 l-50 1 55
11 c30 6 47 12 38 14 -10 3 -18 9 -18 14 0 5 48 9 107 9 67 0 103 -4 98 -9z
m1119 -20 c15 -17 17 -32 11 -108 -3 -48 -12 -119 -20 -158 -8 -38 -17 -86
-20 -105 -13 -78 -28 -120 -41 -120 -11 0 -13 12 -8 58 4 31 10 59 13 62 3 3
7 21 8 40 1 19 4 85 8 145 4 61 9 128 10 150 1 22 3 43 4 48 2 13 17 8 35 -12z
m-2155 -17 c2 -2 -30 -4 -73 -4 -52 0 -75 3 -71 11 6 9 132 3 144 -7z m-424
-34 c-3 -5 -10 -10 -16 -10 -5 0 -9 5 -9 10 0 6 7 10 16 10 8 0 12 -4 9 -10z
m357 -1 c-15 -6 -30 -5 -40 1 -13 7 -8 9 23 9 35 0 37 -1 17 -10z m18 -28 c0
-11 -40 -22 -52 -15 -5 3 -6 10 -3 15 8 12 55 12 55 0z m900 -1 c0 -5 -13 -10
-29 -10 -17 0 -33 5 -36 10 -4 6 8 10 29 10 20 0 36 -4 36 -10z m2349 -38 c11
-30 23 -44 45 -52 16 -5 35 -19 43 -30 8 -11 24 -20 36 -20 29 0 72 22 73 38
1 7 2 22 4 35 1 17 4 15 12 -12 5 -19 7 -50 3 -68 -6 -32 -7 -33 -57 -33 -41
0 -55 5 -74 25 -13 14 -32 25 -42 25 -22 0 -82 87 -82 120 0 34 22 18 39 -28z
m-3261 1 c-10 -2 -28 -2 -40 0 -13 2 -5 4 17 4 22 1 32 -1 23 -4z m829 1 c-3
-3 -12 -4 -19 -1 -8 3 -5 6 6 6 11 1 17 -2 13 -5z m56 -1 c-7 -2 -19 -2 -25 0
-7 3 -2 5 12 5 14 0 19 -2 13 -5z m-896 -29 c-3 -3 -12 -4 -19 -1 -8 3 -5 6 6
6 11 1 17 -2 13 -5z m6 -31 c-7 -2 -21 -2 -30 0 -10 3 -4 5 12 5 17 0 24 -2
18 -5z m-10 -40 c-7 -2 -21 -2 -30 0 -10 3 -4 5 12 5 17 0 24 -2 18 -5z m1418
-114 c9 -9 15 -20 12 -23 -10 -10 -221 -7 -228 4 -3 5 4 12 17 14 13 3 32 7
43 9 11 3 -2 6 -30 7 l-50 3 40 6 c68 11 176 0 196 -20z m-1373 14 c-10 -2
-26 -2 -35 0 -10 3 -2 5 17 5 19 0 27 -2 18 -5z m2 -33 c0 -5 -4 -10 -9 -10
-6 0 -13 5 -16 10 -3 6 1 10 9 10 9 0 16 -4 16 -10z m7 -26 c-3 -3 -12 -4 -19
-1 -8 3 -5 6 6 6 11 1 17 -2 13 -5z m1243 2 c0 -8 -61 -12 -66 -4 -3 4 11 8
30 8 20 0 36 -2 36 -4z m43 -3 c-7 -2 -19 -2 -25 0 -7 3 -2 5 12 5 14 0 19 -2
13 -5z m-1290 -40 c-7 -2 -21 -2 -30 0 -10 3 -4 5 12 5 17 0 24 -2 18 -5z
m3814 1 c-3 -3 -12 -4 -19 -1 -8 3 -5 6 6 6 11 1 17 -2 13 -5z m13 -34 c0 -5
-7 -10 -16 -10 -8 0 -12 5 -9 10 3 6 10 10 16 10 5 0 9 -4 9 -10z m-10 -32 c0
-4 -12 -8 -26 -8 -14 0 -23 4 -19 9 6 11 45 10 45 -1z m-27 -35 c-13 -2 -33
-2 -45 0 -13 2 -3 4 22 4 25 0 35 -2 23 -4z m-2047 -72 c-3 -5 1 -11 9 -15 8
-3 15 -16 14 -28 0 -13 -3 -17 -6 -10 -2 6 -12 12 -21 11 -11 0 -12 -2 -4 -6
32 -13 -8 -23 -94 -23 -61 0 -93 4 -89 10 3 6 34 10 68 10 57 1 60 2 43 15
-18 14 -17 15 25 15 41 1 43 2 25 15 -19 14 -19 15 8 15 15 0 25 -4 22 -9z
m363 -43 c0 -13 -3 -17 -6 -10 -2 6 -18 12 -34 12 -17 0 -28 -4 -24 -9 3 -5
-8 -3 -25 5 -16 9 -30 17 -30 20 0 2 27 4 60 4 56 0 60 -2 59 -22z m-509 -48
c-8 -5 -69 -9 -135 -9 -140 2 -103 14 50 17 69 2 95 -1 85 -8z m-322 -7 c-10
-2 -26 -2 -35 0 -10 3 -2 5 17 5 19 0 27 -2 18 -5z m55 0 c-7 -2 -19 -2 -25 0
-7 3 -2 5 12 5 14 0 19 -2 13 -5z m854 1 c-3 -3 -12 -4 -19 -1 -8 3 -5 6 6 6
11 1 17 -2 13 -5z m89 -39 c4 -8 15 -15 25 -15 10 0 19 -4 19 -10 0 -15 -37
-12 -54 5 -8 8 -24 15 -35 15 -11 0 -23 5 -26 10 -4 6 8 10 30 10 22 0 38 -6
41 -15z m167 -62 c-7 -2 -21 -2 -30 0 -10 3 -4 5 12 5 17 0 24 -2 18 -5z m87
-33 c12 -8 9 -10 -12 -10 -15 0 -30 5 -33 10 -8 13 25 13 45 0z m55 -31 c4 -6
5 -13 1 -16 -8 -8 -56 6 -56 17 0 13 47 13 55 -1z m28 -36 c-7 -2 -21 -2 -30
0 -10 3 -4 5 12 5 17 0 24 -2 18 -5z m453 -394 c16 -6 140 -152 157 -186 15
-28 15 -32 -2 -47 -22 -20 -88 -19 -95 1 -3 7 -12 13 -21 13 -18 0 -40 49 -48
113 -4 27 -14 58 -22 70 -8 12 -15 32 -15 46 0 22 1 23 18 9 9 -9 22 -17 28
-19z m-2948 -97 c33 -25 39 -46 21 -72 -8 -11 -12 -12 -16 -2 -2 6 -10 12 -16
12 -19 0 -77 54 -77 71 0 37 32 33 88 -9z m-148 -265 c14 -12 32 -30 39 -39
12 -17 10 -18 -33 -18 -27 0 -45 4 -41 9 3 5 1 12 -4 15 -13 8 -11 56 3 56 6
-1 22 -11 36 -23z m1944 -991 c-1 -37 -7 -73 -13 -79 -8 -8 -11 -4 -12 14 0
13 -2 50 -5 82 -3 52 -2 58 14 55 14 -3 17 -14 16 -72z"/>
<path d="M4600 6960 c0 -5 5 -10 11 -10 5 0 7 5 4 10 -3 6 -8 10 -11 10 -2 0
-4 -4 -4 -10z"/>
<path d="M4850 6455 c-8 -8 -42 -23 -75 -33 -35 -12 -60 -25 -60 -33 0 -8 -4
-17 -10 -21 -6 -5 -3 -8 7 -8 10 0 22 -9 28 -20 6 -11 20 -20 30 -20 11 0 20
-5 20 -11 0 -5 5 -7 10 -4 6 3 10 1 10 -4 0 -17 56 -13 71 5 12 14 14 14 26
-2 12 -16 14 -16 31 -1 10 9 24 17 31 17 7 0 9 5 6 10 -4 6 -1 17 5 25 10 12
10 15 -1 15 -8 1 -2 7 12 15 45 24 42 40 -12 64 -57 24 -109 27 -129 6z"/>
<path d="M4288 7863 c7 -3 16 -2 19 1 4 3 -2 6 -13 5 -11 0 -14 -3 -6 -6z"/>
<path d="M3850 7739 c0 -5 5 -7 10 -4 6 3 10 8 10 11 0 2 -4 4 -10 4 -5 0 -10
-5 -10 -11z"/>
<path d="M3767 7663 c-11 -10 -8 -35 4 -31 6 2 10 7 9 12 -1 5 4 13 12 17 10
7 10 9 -3 9 -9 0 -19 -3 -22 -7z"/>
<path d="M3848 7603 c6 -2 18 -2 25 0 6 3 1 5 -13 5 -14 0 -19 -2 -12 -5z"/>
<path d="M3687 7563 c-11 -10 -8 -35 4 -31 6 2 10 8 9 13 -1 5 7 12 17 16 16
7 16 8 -3 8 -11 1 -24 -2 -27 -6z"/>
<path d="M3778 7503 c7 -3 16 -2 19 1 4 3 -2 6 -13 5 -11 0 -14 -3 -6 -6z"/>
<path d="M3576 7394 c-9 -8 -16 -27 -15 -42 0 -16 3 -21 6 -12 3 8 15 27 25
43 21 29 10 37 -16 11z"/>
<path d="M2780 5834 c0 -17 14 -18 28 -1 8 10 6 13 -9 14 -10 1 -19 -5 -19
-13z"/>
<path d="M2905 5831 c-6 -5 -19 -11 -30 -14 -11 -3 6 -5 39 -6 51 -1 57 1 46
14 -14 17 -41 20 -55 6z"/>
<path d="M2878 5793 c18 -2 45 -2 60 0 15 2 0 4 -33 4 -33 0 -45 -2 -27 -4z"/>
<path d="M2560 5745 c-16 -20 -5 -32 14 -16 8 7 27 16 43 21 27 8 27 8 -8 9
-21 1 -42 -5 -49 -14z"/>
<path d="M2430 5632 c0 -7 -15 -12 -34 -12 -37 0 -45 -11 -38 -47 5 -25 32
-32 32 -9 0 8 7 17 16 20 9 4 14 9 11 13 -4 3 1 12 11 19 9 7 14 16 9 20 -4 4
-7 2 -7 -4z"/>
<path d="M2288 5313 c7 -3 16 -2 19 1 4 3 -2 6 -13 5 -11 0 -14 -3 -6 -6z"/>
<path d="M298 1688 c-40 -33 -58 -76 -57 -135 1 -54 1 -56 10 -23 39 151 32
143 129 145 25 1 83 3 130 5 l85 3 -60 7 c-100 13 -220 11 -237 -2z"/>
<path d="M766 1692 c-3 -5 -12 -42 -22 -83 -9 -41 -21 -83 -27 -94 -6 -11 -10
-25 -9 -31 3 -16 -32 -23 -93 -19 -32 2 -59 -1 -70 -9 -17 -12 -35 -81 -28
-103 4 -11 96 -10 148 2 28 6 59 80 85 200 11 54 27 107 35 115 8 9 12 20 8
23 -9 9 -21 9 -27 -1z"/>
<path d="M6402 1689 c-49 -10 -49 -16 2 -21 25 -2 46 -1 46 2 -1 18 -19 26
-48 19z"/>
<path d="M7503 1693 c-13 -3 -23 -7 -23 -11 0 -8 301 -5 308 3 3 3 -37 5 -89
6 -52 1 -112 2 -134 3 -22 2 -50 1 -62 -1z"/>
<path d="M8048 1693 c-43 -11 -11 -18 75 -18 50 1 122 -2 158 -5 61 -5 65 -4
55 12 -9 16 -27 18 -141 16 -71 0 -138 -3 -147 -5z"/>
<path d="M6785 1640 c-9 -16 -14 -30 -12 -30 2 0 13 14 25 30 13 17 18 30 13
30 -6 0 -17 -13 -26 -30z"/>
<path d="M8022 1635 c0 -16 2 -22 5 -12 2 9 2 23 0 30 -3 6 -5 -1 -5 -18z"/>
<path d="M7456 1615 c-3 -9 -6 -24 -5 -33 0 -9 5 -4 10 12 9 32 6 48 -5 21z"/>
<path d="M7821 1614 c0 -11 3 -14 6 -6 3 7 2 16 -1 19 -3 4 -6 -2 -5 -13z"/>
<path d="M8185 1600 c-3 -5 -2 -10 4 -10 5 0 13 5 16 10 3 6 2 10 -4 10 -5 0
-13 -4 -16 -10z"/>
<path d="M8255 1600 c3 -5 8 -10 11 -10 2 0 4 5 4 10 0 6 -5 10 -11 10 -5 0
-7 -4 -4 -10z"/>
<path d="M6736 1565 c-9 -26 -7 -32 5 -12 6 10 9 21 6 23 -2 3 -7 -2 -11 -11z"/>
<path d="M7441 1553 c0 -6 -4 -20 -7 -30 -5 -14 -4 -15 5 -7 7 7 11 20 8 30
-3 11 -5 14 -6 7z"/>
<path d="M8324 1548 c-5 -7 -14 -23 -21 -36 -11 -20 -10 -23 4 -20 9 2 20 16
24 32 9 33 6 44 -7 24z"/>
<path d="M5752 1528 c-20 -20 -14 -38 14 -38 20 0 25 4 20 16 -3 9 -6 20 -6
25 0 13 -14 11 -28 -3z"/>
<path d="M577 1516 c-9 -23 0 -37 19 -29 9 3 11 9 6 12 -5 3 -11 13 -14 20 -3
12 -6 11 -11 -3z"/>
<path d="M6675 1510 c-11 -5 -67 -9 -125 -10 -130 -2 -120 -7 26 -13 100 -4
112 -3 122 14 13 21 8 22 -23 9z"/>
<path d="M3541 1484 c-19 -16 -31 -35 -31 -50 0 -20 -5 -24 -30 -24 -34 0 -70
-30 -70 -59 0 -19 -22 -43 -114 -123 -34 -30 -37 -37 -27 -55 8 -16 8 -22 -2
-26 -14 -5 37 -105 89 -174 19 -25 37 -57 40 -71 9 -42 23 -75 43 -101 l18
-24 22 22 c14 14 29 20 42 16 25 -8 24 -3 -6 45 -13 21 -32 66 -41 99 -16 57
-16 62 -1 79 19 21 22 57 7 67 -5 3 -10 17 -10 30 0 46 59 206 93 253 33 45
67 105 67 117 0 16 -62 2 -89 -21z"/>
<path d="M6397 1504 c-14 -14 -7 -25 13 -22 12 2 21 8 21 13 0 12 -24 18 -34
9z"/>
<path d="M7150 1436 c0 -14 -5 -28 -11 -32 -17 -10 -2 -79 26 -128 27 -47 43
-140 26 -150 -18 -11 -13 -57 13 -110 13 -27 22 -54 20 -60 -2 -6 2 -42 9 -81
17 -98 12 -133 -21 -147 l-27 -11 30 -7 c43 -11 58 -11 74 -1 12 8 12 12 3 24
-14 16 -11 70 9 209 9 64 16 81 40 102 32 29 35 40 17 78 -12 25 -13 25 -46
10 -30 -15 -36 -15 -60 -1 -44 25 -56 62 -60 202 -4 116 -6 127 -23 127 -13 0
-19 -7 -19 -24z"/>
<path d="M7397 1417 c-5 -27 -6 -51 -3 -54 8 -8 18 42 14 73 -3 24 -5 20 -11
-19z"/>
<path d="M7860 1440 c0 -11 7 -23 15 -26 8 -4 15 -15 15 -26 0 -25 42 -99 54
-95 5 2 17 40 26 85 l16 82 -63 0 c-57 0 -63 -2 -63 -20z"/>
<path d="M5906 1423 c-6 -14 -5 -15 5 -6 7 7 10 15 7 18 -3 3 -9 -2 -12 -12z"/>
<path d="M4783 1413 c20 -2 54 -2 75 0 20 2 3 4 -38 4 -41 0 -58 -2 -37 -4z"/>
<path d="M4960 1380 c0 -17 -7 -33 -17 -39 -10 -6 -13 -11 -7 -11 18 0 44 35
44 58 0 12 -4 22 -10 22 -5 0 -10 -13 -10 -30z"/>
<path d="M6546 1300 c-32 -39 -63 -70 -68 -70 -5 0 -7 -9 -3 -19 8 -25 -15
-38 -60 -33 -25 3 -35 9 -37 25 -2 11 -8 22 -15 24 -12 4 -16 -7 -28 -79 -4
-29 -11 -38 -25 -38 -23 0 -41 -51 -21 -58 7 -2 16 -15 21 -28 19 -48 59 -26
98 52 11 22 28 47 38 55 9 7 27 30 40 49 13 19 46 68 74 109 28 40 50 75 47
77 -2 2 -29 -28 -61 -66z"/>
<path d="M3901 1350 c11 -6 56 -7 120 -1 l104 8 -120 1 c-81 1 -115 -2 -104
-8z"/>
<path d="M4730 1338 l0 -28 78 1 c42 0 86 4 97 9 13 6 -9 9 -67 9 -72 1 -89 4
-97 19 -9 14 -10 13 -11 -10z"/>
<path d="M5760 1352 c0 -5 7 -13 16 -16 10 -4 14 -1 12 6 -5 15 -28 23 -28 10z"/>
<path d="M5827 1299 c-29 -33 -35 -53 -15 -47 14 5 53 66 46 73 -2 2 -16 -9
-31 -26z"/>
<path d="M162 1265 c-15 -39 -19 -61 -13 -73 7 -13 13 -4 26 41 23 79 15 99
-13 32z"/>
<path d="M1485 1272 c-14 -21 -27 -52 -28 -68 -2 -27 0 -29 33 -25 19 1 37 5
39 7 8 7 1 108 -8 117 -6 6 -19 -6 -36 -31z"/>
<path d="M4342 1273 c-5 -21 -13 -58 -17 -82 -11 -67 10 -42 24 30 7 33 15 67
18 75 3 8 1 14 -4 14 -6 0 -15 -17 -21 -37z"/>
<path d="M6831 1249 c-46 -74 -42 -89 24 -81 19 2 36 10 39 18 9 23 -6 114
-19 114 -7 0 -26 -23 -44 -51z"/>
<path d="M7656 1208 c-3 -13 -10 -45 -16 -73 -26 -113 -26 -112 17 -120 21 -4
43 -11 49 -16 19 -16 24 56 7 106 -8 25 -19 47 -24 51 -5 3 -9 21 -9 40 0 38
-17 46 -24 12z"/>
<path d="M3160 1172 c-32 -10 -95 -15 -215 -16 l-170 -2 -8 -53 c-6 -35 -5
-57 2 -64 13 -13 81 -19 137 -12 34 5 43 11 57 40 21 43 36 44 62 2 19 -30 24
-32 100 -39 44 -3 95 -9 113 -13 32 -7 33 -7 26 21 -3 16 -13 40 -22 54 -8 13
-20 41 -26 61 l-11 36 -45 -15z"/>
<path d="M4401 1162 c-5 -9 -12 -40 -16 -68 -5 -40 -3 -53 9 -63 13 -11 19
-11 31 -1 8 7 15 8 15 4 0 -5 26 -11 57 -12 53 -3 59 -1 83 26 23 28 32 30
111 36 l86 7 24 -35 c22 -32 27 -35 64 -29 22 3 58 0 80 -6 21 -6 41 -8 44 -5
3 3 6 31 6 62 0 55 1 57 30 63 47 10 18 11 -280 10 -231 -2 -285 1 -307 13
-25 13 -29 13 -37 -2z"/>
<path d="M2053 1161 c-107 -8 -129 -28 -124 -114 1 -15 6 -17 32 -12 17 4 59
1 95 -6 35 -7 66 -11 68 -8 3 3 9 29 14 59 5 30 11 61 13 69 5 18 -1 18 -98
12z"/>
<path d="M4226 1163 c-4 -5 -161 -10 -349 -13 l-342 -5 -9 -47 c-11 -59 3 -83
39 -66 16 7 41 7 84 0 74 -13 84 -10 102 31 l14 32 221 5 c200 5 224 7 243 24
12 11 21 25 21 33 0 14 -12 17 -24 6z"/>
<path d="M6230 1159 c-14 -6 -52 -8 -86 -4 l-62 6 -17 -51 c-23 -68 -16 -83
38 -79 23 2 57 0 75 -5 23 -5 38 -4 49 6 21 17 52 86 53 116 0 24 -11 26 -50
11z"/>
<path d="M205 1149 c-3 -4 -8 -27 -11 -51 -8 -64 7 -79 91 -87 75 -8 81 -5
128 63 l18 27 122 -3 121 -3 8 -40 8 -40 83 1 c46 0 89 4 95 8 10 6 19 31 36
109 l7 28 -351 -2 c-193 -1 -353 -5 -355 -10z"/>
<path d="M1152 1110 c-37 -56 -55 -91 -50 -95 2 -2 23 0 48 5 25 4 65 6 90 4
25 -3 104 -4 175 -2 72 2 185 2 253 2 119 -1 129 2 122 31 -1 6 -5 30 -9 55
l-6 45 -72 3 c-67 3 -92 -2 -220 -39 -39 -12 -44 -11 -80 13 -35 24 -46 26
-130 25 l-93 -2 -28 -45z"/>
<path d="M5382 1153 c-73 -4 -73 -4 -88 -38 -8 -19 -14 -46 -14 -60 0 -28 25
-44 43 -26 14 14 53 13 99 -3 45 -16 50 -11 67 56 16 68 15 78 -11 76 -13 -1
-56 -4 -96 -5z"/>
<path d="M5564 1148 c-6 -9 6 -89 16 -107 5 -10 48 -14 182 -16 170 -4 176 -3
196 18 26 29 62 89 62 105 0 13 -66 16 -144 6 -41 -6 -51 -12 -73 -45 -14 -22
-29 -39 -34 -39 -4 0 -11 20 -14 44 l-7 45 -90 -2 c-49 -1 -92 -5 -94 -9z"/>
<path d="M6517 1121 c-32 -41 -39 -106 -9 -97 33 10 537 8 587 -2 28 -6 54 -7
58 -2 5 4 6 37 2 73 l-7 64 -96 1 c-85 1 -99 -1 -119 -20 -20 -18 -29 -20 -85
-14 -34 4 -71 12 -83 18 -11 6 -65 12 -121 12 l-100 1 -27 -34z"/>
<path d="M7394 1121 c-15 -37 -18 -70 -6 -86 4 -5 32 -11 62 -11 30 -1 69 -5
86 -9 28 -6 33 -3 52 27 11 18 23 52 27 75 l7 42 -107 -2 -107 -2 -14 -34z"/>
<path d="M7727 1154 c-7 -8 24 -99 42 -123 19 -25 24 -25 141 -15 54 4 105 2
138 -5 35 -7 59 -8 71 -1 22 11 47 61 56 113 l7 37 -90 0 c-69 0 -94 -4 -106
-16 -9 -8 -16 -20 -16 -25 0 -20 -41 -8 -52 15 -10 24 -15 25 -99 25 -48 -1
-90 -3 -92 -5z"/>
<path d="M4261 1102 l-18 -25 -228 -2 c-168 -1 -230 -4 -233 -13 -2 -7 5 -12
17 -12 12 0 21 -6 21 -14 0 -8 8 -22 17 -31 14 -15 33 -16 147 -11 72 4 133 9
135 12 3 3 6 15 6 27 0 21 4 22 72 19 56 -3 76 0 89 12 9 10 24 14 39 10 29
-7 43 13 23 33 -26 25 -66 23 -87 -5z"/>
<path d="M152 1086 c-6 -13 -19 -27 -30 -30 -13 -5 -22 -22 -30 -59 -18 -86
-35 -223 -30 -238 3 -8 8 11 12 41 7 50 20 108 47 212 5 22 17 39 28 43 22 7
36 34 23 47 -5 5 -13 -2 -20 -16z"/>
<path d="M1852 1090 c-26 -21 -28 -42 -7 -60 21 -18 45 4 45 41 0 36 -10 41
-38 19z"/>
<path d="M426 1064 c-9 -23 -6 -24 39 -14 42 9 102 -10 112 -36 6 -17 -37
-225 -50 -242 -7 -9 -31 -12 -76 -10 l-66 3 -3 44 c-3 42 -4 43 -16 20 -7 -14
-16 -39 -19 -56 l-6 -32 118 -3 c105 -3 118 -1 111 12 -5 9 -4 34 1 55 23 102
45 226 41 230 -3 3 -19 5 -35 5 -20 0 -30 6 -34 20 -4 17 -14 20 -58 20 -40 0
-54 -4 -59 -16z"/>
<path d="M2984 1036 c-8 -22 -2 -27 16 -16 12 7 12 12 3 21 -10 10 -14 9 -19
-5z"/>
<path d="M4238 983 c-10 -2 -18 -11 -18 -19 0 -19 16 -18 24 2 12 30 26 2 27
-54 l2 -57 10 52 c14 75 6 89 -45 76z"/>
<path d="M5963 962 c-8 -5 -10 -23 -5 -57 l8 -50 12 49 c13 49 7 72 -15 58z"/>
<path d="M7600 944 c0 -11 -4 -24 -9 -29 -10 -12 -34 -106 -27 -112 2 -3 9 4
14 14 14 25 35 133 28 140 -3 4 -6 -3 -6 -13z"/>
<path d="M3020 925 c0 -19 101 -178 120 -190 18 -11 10 13 -13 42 -13 15 -42
60 -65 98 -25 41 -42 62 -42 50z"/>
<path d="M1455 920 c-3 -5 3 -10 14 -10 12 0 21 5 21 10 0 6 -6 10 -14 10 -8
0 -18 -4 -21 -10z"/>
<path d="M7740 902 c0 -5 7 -32 15 -60 11 -35 21 -52 32 -52 15 0 15 2 0 18
-8 9 -20 36 -26 60 -11 38 -21 55 -21 34z"/>
<path d="M5466 885 c-10 -28 -7 -53 9 -59 11 -4 15 2 15 22 0 37 -15 60 -24
37z"/>
<path d="M1911 843 c13 -24 28 -43 32 -43 10 0 -23 57 -42 73 -8 7 -3 -7 10
-30z"/>
<path d="M2613 868 c-10 -13 -26 -60 -37 -110 -6 -26 -4 -28 26 -28 l33 0 3
75 c3 72 -4 89 -25 63z"/>
<path d="M1855 850 c-3 -5 -1 -10 4 -10 6 0 11 5 11 10 0 6 -2 10 -4 10 -3 0
-8 -4 -11 -10z"/>
<path d="M4786 830 c3 -19 10 -39 15 -44 17 -19 16 0 -2 39 l-19 40 6 -35z"/>
<path d="M8124 825 c-18 -31 -27 -85 -15 -85 17 0 32 39 29 73 -3 29 -4 30
-14 12z"/>
<path d="M6226 802 c-3 -5 -2 -22 3 -37 7 -29 12 -27 24 7 6 18 -18 45 -27 30z"/>
<path d="M1570 776 c0 -14 5 -26 10 -26 6 0 10 -8 10 -19 0 -24 26 -31 118
-31 48 0 72 4 72 12 0 6 -3 8 -7 5 -3 -4 -17 0 -30 8 -15 10 -43 15 -77 14
-60 -3 -76 4 -76 31 0 10 -4 22 -10 25 -6 4 -10 -5 -10 -19z"/>
<path d="M1959 771 c12 -21 57 -39 84 -33 12 2 3 11 -30 28 -58 29 -67 30 -54
5z"/>
<path d="M3570 780 c0 -5 5 -10 11 -10 5 0 7 5 4 10 -3 6 -8 10 -11 10 -2 0
-4 -4 -4 -10z"/>
<path d="M6932 770 c0 -14 2 -19 5 -12 2 6 2 18 0 25 -3 6 -5 1 -5 -13z"/>
<path d="M3610 763 c0 -21 27 -33 70 -32 l45 1 -46 13 c-26 7 -52 15 -58 19
-6 4 -11 3 -11 -1z"/>
<path d="M810 725 c0 -8 7 -15 16 -15 14 0 14 3 4 15 -7 8 -14 15 -16 15 -2 0
-4 -7 -4 -15z"/>
<path d="M975 730 c-3 -5 -3 -10 2 -11 23 -3 92 3 123 11 29 7 22 8 -42 9 -42
1 -80 -3 -83 -9z"/>
<path d="M6510 725 c7 -9 15 -13 17 -11 7 7 -7 26 -19 26 -6 0 -6 -6 2 -15z"/>
<path d="M6943 725 c5 -13 147 -19 147 -6 0 5 -34 11 -75 13 -47 2 -74 -1 -72
-7z"/>
</g>
</svg>
